<svg width="246" height="128" viewBox="0 0 246 128" fill="none" xmlns="http://www.w3.org/2000/svg">
<path d="M245 37.5H214.5H180.5L162.032 88H209.153L205 99L200.862 110.5H154L147.5 126.5H180.5H212L233.5 68.5H186L188.5 61.5L191.5 53.5H239L245 37.5Z" fill="#037247"/>
<path d="M3.5 126.5L38.5 32H56L42.5 69.5L78 32H94L46.5 81.5L54 126.5H41L35.5 89L22 126.5H3.5Z" fill="#037247"/>
<path d="M245 37.5H214.5H180.5L162.032 88H209.153L205 99L200.862 110.5H154L147.5 126.5H180.5H212L233.5 68.5H186L188.5 61.5L191.5 53.5H239L245 37.5Z" stroke="#031F11"/>
<path d="M3.5 126.5L38.5 32H56L42.5 69.5L78 32H94L46.5 81.5L54 126.5H41L35.5 89L22 126.5H3.5Z" stroke="#031F11"/>
<path fill-rule="evenodd" clip-rule="evenodd" d="M117.5 71C116.5 85.5 99 93.3333 89.5 93.5L77 127H65.5L93 53L104 23.5C110 37.3333 118.5 56.5 117.5 71ZM108 71C109 67.5 104 53 104 53L93 83C102.542 80.2 107 74.5 108 71Z" fill="#037247"/>
<path fill-rule="evenodd" clip-rule="evenodd" d="M117.5 71C116.5 85.5 99 93.3333 89.5 93.5L77 127H65.5L93 53L104 23.5C110 37.3333 118.5 56.5 117.5 71ZM108 71C109 67.5 104 53 104 53L93 83C102.542 80.2 107 74.5 108 71Z" stroke="#031F11"/>
<path d="M157.5 69.5397C152.3 75.1397 143.5 76.5397 142 76.5397L123 127.04L112 127.04L131.5 73.5397C128.333 73.0397 123.172 63.8163 125.5 54.0397C128 43.5397 138.723 32.361 141 30.5397C151 22.5397 158 27.0397 161 29.5397C164 32.0397 165 37.5397 165 43.5397C165 49.5397 164 62.5397 157.5 69.5397Z" fill="#037247"/>
<path d="M157.5 69.5397C152.3 75.1397 143.5 76.5397 142 76.5397L123 127.04L112 127.04L131.5 73.5397C128.333 73.0397 123.172 63.8163 125.5 54.0397C128 43.5397 138.723 32.361 141 30.5397C151 22.5397 158 27.0397 161 29.5397C164 32.0397 165 37.5397 165 43.5397C165 49.5397 164 62.5397 157.5 69.5397Z" stroke="#031F11"/>
</svg>
