<svg width="20" height="20" viewBox="0 0 20 20" fill="none" xmlns="http://www.w3.org/2000/svg">
<path d="M10 17.5C14.1421 17.5 17.5 14.1421 17.5 10C17.5 5.85786 14.1421 2.5 10 2.5C5.85786 2.5 2.5 5.85786 2.5 10C2.5 14.1421 5.85786 17.5 10 17.5Z" stroke="#727272" stroke-width="1.5" stroke-linecap="round" stroke-linejoin="round"/>
<path d="M10 13.875C10.1036 13.875 10.1875 13.9589 10.1875 14.0625C10.1875 14.1661 10.1036 14.25 10 14.25C9.89645 14.25 9.8125 14.1661 9.8125 14.0625C9.8125 13.9589 9.89645 13.875 10 13.875Z" fill="#727272" stroke="#727272" stroke-width="1.5"/>
<path d="M9.99994 11.2504V10.6254C10.4326 10.6254 10.8555 10.4971 11.2152 10.2567C11.575 10.0163 11.8554 9.6747 12.0209 9.27499C12.1865 8.87527 12.2298 8.43544 12.1454 8.01111C12.061 7.58677 11.8527 7.197 11.5467 6.89107C11.2408 6.58514 10.851 6.3768 10.4267 6.2924C10.0024 6.20799 9.56253 6.25131 9.16282 6.41688C8.76311 6.58245 8.42147 6.86282 8.1811 7.22256C7.94073 7.58229 7.81244 8.00522 7.81244 8.43787" stroke="#727272" stroke-width="1.5" stroke-linecap="round" stroke-linejoin="round"/>
</svg>
